HIERARCHY
ROOT Hips
{
 OFFSET 0.000000 0.000000 0.000000
 CHANNELS 6 Xposition Yposition Zposition Yrotation Xrotation Zrotation
 JOINT Chest
 {
  OFFSET 0.000000 10.383400 0.001500
  CHANNELS 3 Yrotation Xrotation Zrotation
  JOINT Chest2
  {
   OFFSET 0.000000 10.418200 -0.003100
   CHANNELS 3 Yrotation Xrotation Zrotation
   JOINT Chest3
   {
    OFFSET 0.000000 10.375100 0.000000
    CHANNELS 3 Yrotation Xrotation Zrotation
    JOINT Chest4
    {
     OFFSET 0.000000 10.364600 0.000000
     CHANNELS 3 Yrotation Xrotation Zrotation
     JOINT Neck
     {
      OFFSET 0.000000 15.642200 0.000000
      CHANNELS 3 Yrotation Xrotation Zrotation
      JOINT Head
      {
       OFFSET 0.000000 9.697300 -0.006500
       CHANNELS 3 Yrotation Xrotation Zrotation
       End Site
       {
        OFFSET 0.000000 18.492200 -0.003400
       }
      }
     }
     JOINT RightCollar
     {
      OFFSET -3.166800 10.349300 0.000000
      CHANNELS 3 Yrotation Xrotation Zrotation
      JOINT RightShoulder
      {
       OFFSET -14.729700 0.000000 0.000000
       CHANNELS 3 Yrotation Xrotation Zrotation
       JOINT RightElbow
       {
        OFFSET 0.000000 -32.224300 0.000000
        CHANNELS 3 Yrotation Xrotation Zrotation
        JOINT RightWrist
        {
         OFFSET 0.000000 -26.084100 0.000000
         CHANNELS 3 Yrotation Xrotation Zrotation
         End Site
         {
          OFFSET 0.000000 -19.319400 0.000000
         }
        }
       }
      }
     }
     JOINT LeftCollar
     {
      OFFSET 3.166800 10.349300 0.000000
      CHANNELS 3 Yrotation Xrotation Zrotation
      JOINT LeftShoulder
      {
       OFFSET 14.729700 0.000000 0.000000
       CHANNELS 3 Yrotation Xrotation Zrotation
       JOINT LeftElbow
       {
        OFFSET 0.000000 -32.224300 0.000000
        CHANNELS 3 Yrotation Xrotation Zrotation
        JOINT LeftWrist
        {
         OFFSET 0.000000 -26.084100 0.000000
         CHANNELS 3 Yrotation Xrotation Zrotation
         End Site
         {
          OFFSET 0.000000 -19.319400 0.000000
         }
        }
       }
      }
     }
    }
   }
  }
 }
 JOINT RightHip
 {
  OFFSET -8.428900 -0.007500 -0.000800
  CHANNELS 3 Yrotation Xrotation Zrotation
  JOINT RightKnee
  {
   OFFSET 0.000000 -43.834600 0.000700
   CHANNELS 3 Yrotation Xrotation Zrotation
   JOINT RightAnkle
   {
    OFFSET 0.000000 -42.757000 0.001200
    CHANNELS 3 Yrotation Xrotation Zrotation
    JOINT RightToe
    {
     OFFSET 0.000000 -6.946900 15.649300
     CHANNELS 3 Yrotation Xrotation Zrotation
     End Site
     {
      OFFSET 0.000000 -1.580800 6.825800
     }
    }
   }
  }
 }
 JOINT LeftHip
 {
  OFFSET 8.428900 -0.007500 -0.000800
  CHANNELS 3 Yrotation Xrotation Zrotation
  JOINT LeftKnee
  {
   OFFSET 0.000000 -43.834600 0.000700
   CHANNELS 3 Yrotation Xrotation Zrotation
   JOINT LeftAnkle
   {
    OFFSET 0.000000 -42.757000 0.001200
    CHANNELS 3 Yrotation Xrotation Zrotation
    JOINT LeftToe
    {
     OFFSET 0.000000 -6.946900 15.649300
     CHANNELS 3 Yrotation Xrotation Zrotation
     End Site
     {
      OFFSET 0.000000 -1.580800 6.825800
     }
    }
   }
  }
 }
}
MOTION
Frames: 7
Frame Time: 0.008333
0.000000 93.354300 0.000000 0.000000 -5.767877 0.000000 0.000000 11.653817 0.000000 0.000000 -5.885947 0.000000 0.000000 -0.000000 0.000000 0.000000 -0.000000 0.000000 0.000000 12.528835 0.000000 0.000000 0.711642 0.000000 0.000000 -0.000000 0.000000 0.000000 0.000000 -90.000000 0.000000 -2.309062 0.000000 0.000000 2.309062 0.000000 0.000000 -0.000000 0.000000 0.000000 -0.000000 90.000000 0.000000 -2.309062 0.000000 0.000000 2.309062 0.000000 0.000000 8.520406 0.000000 0.000000 1.905762 0.000000 -0.000000 -4.658285 0.000000 0.000000 -0.000000 0.000000 0.000000 8.520406 0.000000 0.000000 1.905762 0.000000 -0.000000 -4.658285 0.000000 0.000000 -0.000000 0.000000
0.657417 151.123498 -9.339134 176.456961 -13.621094 -3.016803 -0.581944 14.625857 1.646557 -0.068954 1.310390 0.154562 -0.116318 2.216520 0.263146 -0.538106 13.101966 1.498841 -1.683775 12.481168 -0.093358 -1.735497 -12.549956 0.300769 5.286178 -2.449034 0.024543 14.805335 -18.354645 -11.074118 49.062946 -42.573663 -25.602166 18.729632 3.100848 -27.297204 -9.167366 -0.146536 -1.485987 -1.071803 -21.800825 9.106061 -21.462934 -56.147099 0.118345 -15.766958 6.678010 11.407589 1.792996 -52.917459 6.391799 -120.959380 83.563876 -118.991836 -0.478819 -24.295671 1.703587 -0.006193 -0.016662 -0.000899 1.790056 -54.255611 -6.331312 97.510436 81.589274 104.059583 8.817437 -20.813659 -10.289654 0.011650 0.016973 0.011125
0.436977 143.168508 -8.857446 176.457217 -13.616618 -3.018881 -0.584281 14.628924 1.652265 -0.069108 1.310513 0.154645 -0.111738 2.215552 0.264288 -0.539312 13.103269 1.499390 -1.688309 12.483801 -0.090013 -1.737052 -12.548544 0.303836 5.303409 -2.471294 0.029055 14.781095 -18.328566 -11.069515 49.069236 -42.580782 -25.617983 18.721229 3.068220 -27.336758 -9.167333 -0.150858 -1.487065 -1.070508 -21.799912 9.106018 -21.468951 -56.145106 0.118550 -15.752677 6.662361 11.436319 1.792944 -52.923562 6.391624 -121.016293 83.565816 -119.048069 -0.481003 -24.303442 1.704538 -0.003791 -0.015082 -0.001682 1.795221 -54.254191 -6.321414 97.458903 81.586846 104.010493 8.791174 -20.809252 -10.283450 0.008837 0.015163 0.003924
0.255252 136.617343 -8.461242 176.457605 -13.614154 -3.018378 -0.576824 14.636338 1.664961 -0.069362 1.310987 0.154773 -0.115002 2.211562 0.260287 -0.541776 13.101582 1.498776 -1.692342 12.488591 -0.087050 -1.742735 -12.544653 0.308046 5.304876 -2.481783 0.025700 14.750014 -18.278729 -11.016504 49.128265 -42.587079 -25.702735 18.725890 3.049589 -27.352894 -9.171704 -0.148765 -1.486445 -1.065768 -21.798136 9.110264 -21.467884 -56.146053 0.110647 -15.736657 6.643507 11.471508 1.797008 -52.928579 6.386974 -121.065800 83.566203 -119.096890 -0.483789 -24.307414 1.705672 -0.002083 -0.011742 -0.000925 1.800568 -54.253096 -6.322022 97.432440 81.591156 103.988465 8.791341 -20.800640 -10.283326 0.006493 0.009586 0.002883
0.122936 131.885493 -8.173944 176.468506 -13.603047 -3.013812 -0.587672 14.628834 1.662279 -0.067565 1.311256 0.156310 -0.115298 2.211244 0.260521 -0.543232 13.100546 1.500255 -1.695751 12.495832 -0.085511 -1.750944 -12.539205 0.314565 5.307007 -2.489207 0.024864 14.736085 -18.249791 -10.999290 49.137440 -42.599118 -25.738508 18.694334 2.991288 -27.410088 -9.173911 -0.144197 -1.484586 -1.064036 -21.798577 9.105319 -21.470159 -56.147435 0.111284 -15.720876 6.629135 11.507548 1.799356 -52.941352 6.370913 -121.104223 83.566016 -119.134902 -0.486016 -24.309171 1.706297 -0.000075 -0.008887 -0.000033 1.801682 -54.261706 -6.333603 97.401082 81.594336 103.957325 8.787844 -20.791950 -10.279238 0.002559 0.006661 0.001136
0.040534 128.897104 -7.993458 176.469774 -13.600058 -3.014450 -0.588916 14.626796 1.664041 -0.063280 1.312785 0.159668 -0.115345 2.210784 0.260912 -0.543415 13.099134 1.502815 -1.703557 12.511237 -0.071146 -1.755537 -12.540953 0.310232 5.309379 -2.496992 0.016363 14.723841 -18.232478 -10.985975 49.130250 -42.608400 -25.752178 18.642340 2.929456 -27.473651 -9.183022 -0.139489 -1.478311 -1.062327 -21.794654 9.096644 -21.467564 -56.150482 0.115203 -15.704251 6.614894 11.542710 1.800535 -52.945405 6.367835 -121.115867 83.566815 -119.145772 -0.485225 -24.309022 1.704160 0.000747 -0.007578 0.000332 1.808997 -54.263243 -6.334835 97.398140 81.599132 103.957054 8.788460 -20.788229 -10.277148 0.001242 0.004450 0.000551
-0.004678 127.253459 -7.894880 176.473147 -13.599609 -3.014529 -0.584333 14.628186 1.670700 -0.069166 1.313363 0.157910 -0.115567 2.210227 0.261436 -0.544699 13.097415 1.505709 -1.706404 12.514583 -0.072364 -1.759855 -12.537393 0.313741 5.311591 -2.497419 0.006357 14.716852 -18.222306 -10.974665 49.091756 -42.628116 -25.745425 18.611190 2.878756 -27.529425 -9.187071 -0.134341 -1.471603 -1.064460 -21.791272 9.087771 -21.466080 -56.146149 0.119212 -15.686321 6.597045 11.576596 1.799648 -52.945848 6.363435 -121.142018 83.564681 -119.168265 -0.483915 -24.312320 1.699490 0.003482 -0.006937 0.001545 1.816949 -54.265135 -6.342292 97.430457 81.599501 103.990125 8.794539 -20.786978 -10.273579 -0.002377 0.001228 -0.001055
